<svg xmlns="http://www.w3.org/2000/svg" version="1.1" xmlns:xlink="http://www.w3.org/1999/xlink" xmlns:svgjs="http://svgjs.dev/svgjs" width="140px" height="140px"><svg xmlns="http://www.w3.org/2000/svg" version="1.1" width="140px" height="140px" style="shape-rendering:geometricPrecision; text-rendering:geometricPrecision; image-rendering:optimizeQuality; fill-rule:evenodd; clip-rule:evenodd" xmlns:xlink="http://www.w3.org/1999/xlink">
<g><path style="opacity:1" fill="#777675" d="M -0.5,-0.5 C 46.1667,-0.5 92.8333,-0.5 139.5,-0.5C 139.5,46.1667 139.5,92.8333 139.5,139.5C 125.5,139.5 111.5,139.5 97.5,139.5C 96.0172,128.284 90.6838,119.618 81.5,113.5C 82.4916,113.672 83.1583,113.338 83.5,112.5C 87.4068,110.43 90.5735,107.43 93,103.5C 95.767,98.9654 98.267,94.2987 100.5,89.5C 101.117,89.3893 101.617,89.056 102,88.5C 102.499,84.5138 102.666,80.5138 102.5,76.5C 103.222,76.0825 103.722,75.4158 104,74.5C 105.898,63.4947 105.898,52.4947 104,41.5C 103.626,39.5087 102.793,37.842 101.5,36.5C 100.89,34.5659 99.8897,32.8993 98.5,31.5C 96.9962,29.1644 94.9962,27.331 92.5,26C 84.98,23.3696 77.3134,21.5362 69.5,20.5C 60.419,21.4704 51.7523,23.9704 43.5,28C 41.2345,29.7581 39.5678,31.9248 38.5,34.5C 36.5541,36.734 35.3874,39.4006 35,42.5C 34.2326,53.8667 34.3993,65.2001 35.5,76.5C 36.1805,80.1191 36.6805,83.7858 37,87.5C 37.2784,88.4158 37.7784,89.0825 38.5,89.5C 41.9558,97.6187 46.6225,104.952 52.5,111.5C 53.4168,112.127 54.4168,112.461 55.5,112.5C 56.1667,113.167 56.8333,113.833 57.5,114.5C 53.6681,115.818 50.5014,118.152 48,121.5C 44.9773,127.208 42.8106,133.208 41.5,139.5C 27.5,139.5 13.5,139.5 -0.5,139.5C -0.5,92.8333 -0.5,46.1667 -0.5,-0.5 Z"></path></g>
<g><path style="opacity:1" fill="#f9bc63" d="M 98.5,31.5 C 96.5992,31.4332 94.7659,31.7665 93,32.5C 84.5139,29.813 76.6806,27.4796 69.5,25.5C 63.4374,26.349 57.4374,27.5157 51.5,29C 47.2894,31.8963 43.1227,34.7296 39,37.5C 38.5172,36.552 38.3505,35.552 38.5,34.5C 39.5678,31.9248 41.2345,29.7581 43.5,28C 51.7523,23.9704 60.419,21.4704 69.5,20.5C 77.3134,21.5362 84.98,23.3696 92.5,26C 94.9962,27.331 96.9962,29.1644 98.5,31.5 Z"></path></g>
<g><path style="opacity:1" fill="#f2ac52" d="M 98.5,31.5 C 99.8897,32.8993 100.89,34.5659 101.5,36.5C 101.649,37.552 101.483,38.552 101,39.5C 99.2151,38.7599 97.3817,38.0933 95.5,37.5C 94.2844,41.5995 92.7844,45.5995 91,49.5C 89.8873,50.305 88.7206,50.9717 87.5,51.5C 84.5152,45.5334 81.0152,39.8667 77,34.5C 74.5398,35.5979 72.0398,36.5979 69.5,37.5C 66.9602,36.5979 64.4602,35.5979 62,34.5C 57.4208,40.6484 53.5874,47.3151 50.5,54.5C 53.2629,55.2521 55.9296,56.2521 58.5,57.5C 59.6256,58.8084 59.6256,60.1417 58.5,61.5C 57.5,61.5 56.5,61.5 55.5,61.5C 51.9489,57.3057 48.7822,57.6391 46,62.5C 45.5814,61.3279 44.9147,60.3279 44,59.5C 42.3903,61.731 40.557,63.731 38.5,65.5C 37.1968,68.6447 37.1968,71.6447 38.5,74.5C 38.6716,75.4916 38.3382,76.1583 37.5,76.5C 36.8333,76.5 36.1667,76.5 35.5,76.5C 34.3993,65.2001 34.2326,53.8667 35,42.5C 35.3874,39.4006 36.5541,36.734 38.5,34.5C 38.3505,35.552 38.5172,36.552 39,37.5C 43.1227,34.7296 47.2894,31.8963 51.5,29C 57.4374,27.5157 63.4374,26.349 69.5,25.5C 76.6806,27.4796 84.5139,29.813 93,32.5C 94.7659,31.7665 96.5992,31.4332 98.5,31.5 Z"></path></g>
<g><path style="opacity:1" fill="#fdeeb7" d="M 87.5,51.5 C 87.33,52.8221 87.6634,53.9887 88.5,55C 85.6484,55.2694 82.9818,56.1028 80.5,57.5C 79.2241,58.6136 79.2241,59.6136 80.5,60.5C 80.5,60.8333 80.5,61.1667 80.5,61.5C 78.3551,61.7377 76.6885,62.7377 75.5,64.5C 76.868,65.5937 78.0347,65.2603 79,63.5C 79.0995,65.6526 79.9328,67.3192 81.5,68.5C 81.5,68.8333 81.5,69.1667 81.5,69.5C 80.0227,73.2335 79.1894,77.2335 79,81.5C 78.0853,82.3279 77.4186,83.3279 77,84.5C 76.8603,81.9568 76.1937,79.6234 75,77.5C 72.0388,82.9171 67.8722,83.9171 62.5,80.5C 64.0037,76.5219 65.1704,72.5219 66,68.5C 63.6284,71.9099 61.7951,75.5766 60.5,79.5C 58.3596,77.2995 56.8596,74.6328 56,71.5C 54.6976,70.9152 53.531,70.2485 52.5,69.5C 54.4147,69.7845 56.0813,69.4511 57.5,68.5C 59.0672,67.3192 59.9005,65.6526 60,63.5C 60.9653,65.2603 62.132,65.5937 63.5,64.5C 62.3115,62.7377 60.6449,61.7377 58.5,61.5C 59.6256,60.1417 59.6256,58.8084 58.5,57.5C 55.9296,56.2521 53.2629,55.2521 50.5,54.5C 53.5874,47.3151 57.4208,40.6484 62,34.5C 64.4602,35.5979 66.9602,36.5979 69.5,37.5C 72.0398,36.5979 74.5398,35.5979 77,34.5C 81.0152,39.8667 84.5152,45.5334 87.5,51.5 Z"></path></g>
<g><path style="opacity:1" fill="#fbe2aa" d="M 55.5,61.5 C 51.797,62.3678 49.1303,64.5345 47.5,68C 47.8361,69.0299 48.5028,69.5299 49.5,69.5C 50.5,69.5 51.5,69.5 52.5,69.5C 53.531,70.2485 54.6976,70.9152 56,71.5C 56.8596,74.6328 58.3596,77.2995 60.5,79.5C 60.2865,81.1439 60.6198,82.6439 61.5,84C 66.2569,85.8842 70.9236,85.8842 75.5,84C 71.5,83.6667 67.5,83.3333 63.5,83C 62.001,82.1618 61.6676,81.3285 62.5,80.5C 67.8722,83.9171 72.0388,82.9171 75,77.5C 76.1937,79.6234 76.8603,81.9568 77,84.5C 77.4186,83.3279 78.0853,82.3279 79,81.5C 79.1894,77.2335 80.0227,73.2335 81.5,69.5C 84.1667,69.5 86.8333,69.5 89.5,69.5C 89.5,70.1667 89.8333,70.5 90.5,70.5C 90.8255,76.9684 89.1588,83.1351 85.5,89C 84.2068,89.49 82.8734,89.6567 81.5,89.5C 77.1922,88.9827 72.8589,88.6493 68.5,88.5C 62.1187,89.0456 55.7854,89.5456 49.5,90C 45.3501,86.0539 43.0168,81.2206 42.5,75.5C 41.0413,75.5674 39.7079,75.2341 38.5,74.5C 37.1968,71.6447 37.1968,68.6447 38.5,65.5C 40.557,63.731 42.3903,61.731 44,59.5C 44.9147,60.3279 45.5814,61.3279 46,62.5C 48.7822,57.6391 51.9489,57.3057 55.5,61.5 Z"></path></g>
<g><path style="opacity:1" fill="#d7974a" d="M 101.5,36.5 C 102.793,37.842 103.626,39.5087 104,41.5C 105.898,52.4947 105.898,63.4947 104,74.5C 103.722,75.4158 103.222,76.0825 102.5,76.5C 102.167,76.5 101.833,76.5 101.5,76.5C 100.662,76.1583 100.328,75.4916 100.5,74.5C 101.643,71.0242 101.81,67.3575 101,63.5C 100.667,64.1667 100.333,64.8333 100,65.5C 98.3333,63.5 96.6667,61.5 95,59.5C 93.0991,63.585 91.5991,63.4183 90.5,59C 89.6667,58.8333 88.8333,58.6667 88,58.5C 85.7298,59.8599 83.2298,60.5266 80.5,60.5C 79.2241,59.6136 79.2241,58.6136 80.5,57.5C 82.9818,56.1028 85.6484,55.2694 88.5,55C 87.6634,53.9887 87.33,52.8221 87.5,51.5C 88.7206,50.9717 89.8873,50.305 91,49.5C 92.7844,45.5995 94.2844,41.5995 95.5,37.5C 97.3817,38.0933 99.2151,38.7599 101,39.5C 101.483,38.552 101.649,37.552 101.5,36.5 Z"></path></g>
<g><path style="opacity:1" fill="#1e1c1a" d="M 55.5,61.5 C 56.5,61.5 57.5,61.5 58.5,61.5C 60.6449,61.7377 62.3115,62.7377 63.5,64.5C 62.132,65.5937 60.9653,65.2603 60,63.5C 59.9005,65.6526 59.0672,67.3192 57.5,68.5C 54.1405,69.2096 52.3071,67.8762 52,64.5C 49.7097,65.8281 48.8764,67.4947 49.5,69.5C 48.5028,69.5299 47.8361,69.0299 47.5,68C 49.1303,64.5345 51.797,62.3678 55.5,61.5 Z"></path></g>
<g><path style="opacity:1" fill="#1b1917" d="M 80.5,61.5 C 85.7386,61.2873 89.7386,63.4539 92.5,68C 91.6195,68.7083 90.9528,69.5416 90.5,70.5C 89.8333,70.5 89.5,70.1667 89.5,69.5C 90.1236,67.4947 89.2903,65.8281 87,64.5C 86.6929,67.8762 84.8595,69.2096 81.5,68.5C 79.9328,67.3192 79.0995,65.6526 79,63.5C 78.0347,65.2603 76.868,65.5937 75.5,64.5C 76.6885,62.7377 78.3551,61.7377 80.5,61.5 Z"></path></g>
<g><path style="opacity:1" fill="#fbce99" d="M 100.5,74.5 C 99.209,74.2627 98.209,74.596 97.5,75.5C 96.0591,79.0677 94.5591,82.7344 93,86.5C 90.8587,89.3208 88.0254,90.6541 84.5,90.5C 83.209,90.7373 82.209,90.404 81.5,89.5C 82.8734,89.6567 84.2068,89.49 85.5,89C 89.1588,83.1351 90.8255,76.9684 90.5,70.5C 90.9528,69.5416 91.6195,68.7083 92.5,68C 89.7386,63.4539 85.7386,61.2873 80.5,61.5C 80.5,61.1667 80.5,60.8333 80.5,60.5C 83.2298,60.5266 85.7298,59.8599 88,58.5C 88.8333,58.6667 89.6667,58.8333 90.5,59C 91.5991,63.4183 93.0991,63.585 95,59.5C 96.6667,61.5 98.3333,63.5 100,65.5C 100.333,64.8333 100.667,64.1667 101,63.5C 101.81,67.3575 101.643,71.0242 100.5,74.5 Z"></path></g>
<g><path style="opacity:1" fill="#dad4cf" d="M 57.5,68.5 C 56.0813,69.4511 54.4147,69.7845 52.5,69.5C 51.5,69.5 50.5,69.5 49.5,69.5C 48.8764,67.4947 49.7097,65.8281 52,64.5C 52.3071,67.8762 54.1405,69.2096 57.5,68.5 Z"></path></g>
<g><path style="opacity:1" fill="#d8d1ca" d="M 89.5,69.5 C 86.8333,69.5 84.1667,69.5 81.5,69.5C 81.5,69.1667 81.5,68.8333 81.5,68.5C 84.8595,69.2096 86.6929,67.8762 87,64.5C 89.2903,65.8281 90.1236,67.4947 89.5,69.5 Z"></path></g>
<g><path style="opacity:1" fill="#0b0a07" d="M 62.5,80.5 C 61.6676,81.3285 62.001,82.1618 63.5,83C 67.5,83.3333 71.5,83.6667 75.5,84C 70.9236,85.8842 66.2569,85.8842 61.5,84C 60.6198,82.6439 60.2865,81.1439 60.5,79.5C 61.7951,75.5766 63.6284,71.9099 66,68.5C 65.1704,72.5219 64.0037,76.5219 62.5,80.5 Z"></path></g>
<g><path style="opacity:1" fill="#e9dbac" d="M 35.5,76.5 C 36.1667,76.5 36.8333,76.5 37.5,76.5C 37.4672,80.8689 37.8005,85.2022 38.5,89.5C 37.7784,89.0825 37.2784,88.4158 37,87.5C 36.6805,83.7858 36.1805,80.1191 35.5,76.5 Z"></path></g>
<g><path style="opacity:1" fill="#dcbd93" d="M 101.5,76.5 C 101.833,76.5 102.167,76.5 102.5,76.5C 102.666,80.5138 102.499,84.5138 102,88.5C 101.617,89.056 101.117,89.3893 100.5,89.5C 101.2,85.2022 101.533,80.8689 101.5,76.5 Z"></path></g>
<g><path style="opacity:1" fill="#9c461c" d="M 38.5,74.5 C 39.7079,75.2341 41.0413,75.5674 42.5,75.5C 43.0168,81.2206 45.3501,86.0539 49.5,90C 55.7854,89.5456 62.1187,89.0456 68.5,88.5C 72.8589,88.6493 77.1922,88.9827 81.5,89.5C 82.209,90.404 83.209,90.7373 84.5,90.5C 83.6993,92.0418 83.366,93.7085 83.5,95.5C 76.3049,92.4274 68.9715,91.7607 61.5,93.5C 61.1667,93.5 60.8333,93.5 60.5,93.5C 54.4208,94.7766 53.0874,97.9432 56.5,103C 58.5,103.667 60.5,103.667 62.5,103C 65.9922,100.439 69.6588,99.9392 73.5,101.5C 72.7539,107.242 69.4206,110.242 63.5,110.5C 60.5268,109.19 58.1935,107.19 56.5,104.5C 56.728,107.109 56.3946,109.776 55.5,112.5C 54.4168,112.461 53.4168,112.127 52.5,111.5C 46.6225,104.952 41.9558,97.6187 38.5,89.5C 37.8005,85.2022 37.4672,80.8689 37.5,76.5C 38.3382,76.1583 38.6716,75.4916 38.5,74.5 Z"></path></g>
<g><path style="opacity:1" fill="#f1cf9a" d="M 83.5,95.5 C 86.0991,97.9213 86.0991,100.421 83.5,103C 79.8513,103.963 76.518,103.463 73.5,101.5C 69.6588,99.9392 65.9922,100.439 62.5,103C 60.5,103.667 58.5,103.667 56.5,103C 53.0874,97.9432 54.4208,94.7766 60.5,93.5C 59.7101,94.7942 58.7101,95.9609 57.5,97C 65.4847,98.9069 73.4847,98.9069 81.5,97C 80.6667,96.1667 79.8333,95.3333 79,94.5C 76.3389,96.7958 73.1722,97.7958 69.5,97.5C 67.8333,97.3333 66.1667,97.1667 64.5,97C 62.5743,96.5776 61.5743,95.4109 61.5,93.5C 68.9715,91.7607 76.3049,92.4274 83.5,95.5 Z"></path></g>
<g><path style="opacity:1" fill="#2a261e" d="M 60.5,93.5 C 60.8333,93.5 61.1667,93.5 61.5,93.5C 61.5743,95.4109 62.5743,96.5776 64.5,97C 66.1667,97.1667 67.8333,97.3333 69.5,97.5C 73.1722,97.7958 76.3389,96.7958 79,94.5C 79.8333,95.3333 80.6667,96.1667 81.5,97C 73.4847,98.9069 65.4847,98.9069 57.5,97C 58.7101,95.9609 59.7101,94.7942 60.5,93.5 Z"></path></g>
<g><path style="opacity:1" fill="#8e3d16" d="M 97.5,75.5 C 98.647,79.6463 98.8136,83.9796 98,88.5C 94.9786,97.5338 90.1453,105.534 83.5,112.5C 83.1583,113.338 82.4916,113.672 81.5,113.5C 73.6082,115.823 65.6082,116.157 57.5,114.5C 56.8333,113.833 56.1667,113.167 55.5,112.5C 56.3946,109.776 56.728,107.109 56.5,104.5C 58.1935,107.19 60.5268,109.19 63.5,110.5C 69.4206,110.242 72.7539,107.242 73.5,101.5C 76.518,103.463 79.8513,103.963 83.5,103C 86.0991,100.421 86.0991,97.9213 83.5,95.5C 83.366,93.7085 83.6993,92.0418 84.5,90.5C 88.0254,90.6541 90.8587,89.3208 93,86.5C 94.5591,82.7344 96.0591,79.0677 97.5,75.5 Z"></path></g>
<g><path style="opacity:1" fill="#aa603a" d="M 97.5,75.5 C 98.209,74.596 99.209,74.2627 100.5,74.5C 100.328,75.4916 100.662,76.1583 101.5,76.5C 101.533,80.8689 101.2,85.2022 100.5,89.5C 98.267,94.2987 95.767,98.9654 93,103.5C 90.5735,107.43 87.4068,110.43 83.5,112.5C 90.1453,105.534 94.9786,97.5338 98,88.5C 98.8136,83.9796 98.647,79.6463 97.5,75.5 Z"></path></g>
<g><path style="opacity:1" fill="#1f1c16" d="M 81.5,113.5 C 90.6838,119.618 96.0172,128.284 97.5,139.5C 78.8333,139.5 60.1667,139.5 41.5,139.5C 42.8106,133.208 44.9773,127.208 48,121.5C 50.5014,118.152 53.6681,115.818 57.5,114.5C 65.6082,116.157 73.6082,115.823 81.5,113.5 Z"></path></g>
</svg><style>@media (prefers-color-scheme: light) { :root { filter: none; } }
@media (prefers-color-scheme: dark) { :root { filter: none; } }
</style></svg>